# xmcd
#
# Track frame offsets:
#	150
#	19641
#	33611
#	46366
#	62600
#	78428
#	94295
#	107717
#	125346
#	138623
#	153325
#	168485
#	193402
#	201125
#	217103
#
# Disc length: 3140 seconds
#
# Revision: 0
# Processed by: cddbd v1.5.2PL0 Copyright (c) Steve Scherf et al.
# Submitted via: audiograbber 1.83.01
#
DISCID=da0c420f
DTITLE=Reg Cooper - Beautiful Day
DYEAR=2000
DGENRE=Country
TTITLE0=Beautiful Day 
TTITLE1=Friend Of Mine 
TTITLE2=I Love Love Songs 
TTITLE3=Sometimes Forever 
TTITLE4=The Story Of Emma and I 
TTITLE5=Brandywine 
TTITLE6=Singing Gold 
TTITLE7=Bentley 
TTITLE8=Three Flowers 
TTITLE9=Guitars Were Made For Strummin'
TTITLE10=When You Told Me 
TTITLE11=Autumn Long Ago 
TTITLE12=Fantasm 
TTITLE13=Nothing Left To Dream 
TTITLE14=Old Worn Out Song 
EXTD=
EXTT0=
EXTT1=
EXTT2=
EXTT3=
EXTT4=
EXTT5=
EXTT6=
EXTT7=
EXTT8=
EXTT9=
EXTT10=
EXTT11=
EXTT12=
EXTT13=
EXTT14=
PLAYORDER=
